<?xml version="1.0" standalone="no"?>
<!DOCTYPE svg PUBLIC "-//W3C//DTD SVG 1.1//EN" "http://www.w3.org/Graphics/SVG/1.1/DTD/svg11.dtd" >
<svg xmlns="http://www.w3.org/2000/svg">
<metadata>Generated by IcoMoon</metadata>
<defs>
<font id="icomoon" horiz-adv-x="1024">
<font-face units-per-em="1024" ascent="960" descent="-64" />
<missing-glyph horiz-adv-x="1024" />
<glyph unicode="&#x20;" horiz-adv-x="512" d="" />
<glyph unicode="&#xe900;" glyph-name="arrow-back" d="M853.333 482.134h-519.253l238.507 238.507-60.587 60.16-341.333-341.333 341.333-341.333 60.16 60.16-238.080 238.507h519.253v85.333z" />
<glyph unicode="&#xe901;" glyph-name="cancel-outlined" horiz-adv-x="983" d="M491.52 883.2c-226.509 0-409.6-183.091-409.6-409.6s183.091-409.6 409.6-409.6c226.509 0 409.6 183.091 409.6 409.6s-183.091 409.6-409.6 409.6zM491.52 145.92c-180.634 0-327.68 147.046-327.68 327.68s147.046 327.68 327.68 327.68c180.634 0 327.68-147.046 327.68-327.68s-147.046-327.68-327.68-327.68zM638.566 678.4l-147.046-147.046-147.046 147.046-57.754-57.754 147.046-147.046-147.046-147.046 57.754-57.754 147.046 147.046 147.046-147.046 57.754 57.754-147.046 147.046 147.046 147.046-57.754 57.754z" />
<glyph unicode="&#xe902;" glyph-name="arrow-right" d="M753.521 499.932l-237.567 237.567 55.333 55.333 332.032-332.032-332.032-332.032-55.333 55.333 237.567 237.567h-632.838v78.264z" />
<glyph unicode="&#xe903;" glyph-name="error-outlined" d="M512 84.667q140 0 241 101t101 241-101 241-241 101-241-101-101-241 101-241 241-101zM512 852.667q176 0 301-125t125-301-125-301-301-125-301 125-125 301 125 301 301 125zM470 640.667h84v-256h-84v256zM470 298.667h84v-86h-84v86z" />
<glyph unicode="&#xe904;" glyph-name="chevron-down" d="M316.16 584.96l195.84-195.413 195.84 195.413 60.16-60.16-256-256-256 256 60.16 60.16z" />
<glyph unicode="&#xe905;" glyph-name="chevron-left" d="M657.493 635.307l-60.16 60.16-256-256 256-256 60.16 60.16-195.413 195.84 195.413 195.84z" />
<glyph unicode="&#xe906;" glyph-name="chevron-right" d="M426.667 695.467l-60.16-60.16 195.413-195.84-195.413-195.84 60.16-60.16 256 256-256 256z" />
<glyph unicode="&#xe907;" glyph-name="language" d="M698 353.467h144q12 56 12 86t-12 86h-144q6-42 6-86t-6-86zM622 117.467q50 16 104 61t82 91h-126q-20-80-60-152zM612 353.467q6 42 6 86t-6 86h-200q-6-42-6-86t6-86h200zM512 99.467q56 82 82 170h-164q26-88 82-170zM342 609.467q24 86 60 152-50-16-105-61t-81-91h126zM216 269.467q26-46 81-91t105-61q-40 72-60 152h-126zM182 353.467h144q-6 42-6 86t6 86h-144q-12-56-12-86t12-86zM512 779.467q-56-82-82-170h164q-26 88-82 170zM808 609.467q-28 46-82 91t-104 61q36-66 60-152h126zM512 865.467q176 0 301-125t125-301-125-301-301-125-301 125-125 301 125 301 301 125z" />
<glyph unicode="&#xe908;" glyph-name="check-outlined" d="M150.016 98.816c-96.436 93.233-156.308 223.762-156.308 368.276 0 282.77 229.23 512 512 512 144.514 0 275.043-59.872 368.137-156.164l0.138-0.144c88.925-91.979 143.724-217.436 143.724-355.692 0-282.77-229.23-512-512-512-138.256 0-263.713 54.799-355.836 143.863l0.144-0.138zM801.792 171.008c74.164 74.164 120.036 176.621 120.036 289.792 0 226.342-183.486 409.828-409.828 409.828-113.171 0-215.628-45.872-289.792-120.036v0c-74.164-74.164-120.036-176.621-120.036-289.792 0-226.342 183.486-409.828 409.828-409.828 113.171 0 215.628 45.872 289.792 120.036v0zM343.040 497.152l117.76-118.272 220.16 220.16 71.68-72.704-291.84-290.816-189.44 189.44 71.68 72.704z" />
<glyph unicode="&#xe90b;" glyph-name="chevron-up" d="M316.16 293.974l195.84 195.413 195.84-195.413 60.16 60.16-256 256-256-256 60.16-60.16z" />
<glyph unicode="&#xe91a;" glyph-name="menu" d="M128 183.467h768v85.333h-768v-85.333zM128 396.8h768v85.333h-768v-85.333zM128 695.467v-85.333h768v85.333h-768z" />
<glyph unicode="&#xe91d;" glyph-name="check" d="M384 261.467l452 452 60-60-512-512-238 238 60 60z" />
<glyph unicode="&#xe91e;" glyph-name="close" d="M810 677.467l-238-238 238-238-60-60-238 238-238-238-60 60 238 238-238 238 60 60 238-238 238 238z" />
<glyph unicode="&#xe921;" glyph-name="info-outlined" d="M470 567.467v86h84v-86h-84zM512 97.467q140 0 241 101t101 241-101 241-241 101-241-101-101-241 101-241 241-101zM512 865.467q176 0 301-125t125-301-125-301-301-125-301 125-125 301 125 301 301 125zM470 225.467v256h84v-256h-84z" />
<glyph unicode="&#xe92b;" glyph-name="document" d="M469.333 652.8h256v-85.333h-256v85.333zM469.333 482.134h256v-85.333h-256v85.333zM469.333 311.467h256v-85.333h-256v85.333zM298.667 652.8h85.333v-85.333h-85.333v85.333zM298.667 482.134h85.333v-85.333h-85.333v85.333zM298.667 311.467h85.333v-85.333h-85.333v85.333zM857.6 823.467h-691.2c-21.333 0-38.4-17.067-38.4-38.4v-691.2c0-17.067 17.067-38.4 38.4-38.4h691.2c17.067 0 38.4 21.333 38.4 38.4v691.2c0 21.333-21.333 38.4-38.4 38.4zM810.667 140.8h-597.333v597.333h597.333v-597.333z" />
<glyph unicode="&#xe92c;" glyph-name="emoji-happy" d="M661.333 482.134c35.345 0 64 28.655 64 64s-28.655 64-64 64-64-28.654-64-64c0-35.345 28.655-64 64-64zM362.667 482.134c35.346 0 64 28.655 64 64s-28.654 64-64 64-64-28.654-64-64c0-35.345 28.654-64 64-64zM512 183.467c97.28 0 180.053 70.827 213.333 170.667h-426.667c33.28-99.84 116.053-170.667 213.333-170.667zM511.573 866.134c-235.52 0-426.24-191.147-426.24-426.667s190.72-426.667 426.24-426.667c235.947 0 427.093 191.147 427.093 426.667s-191.147 426.667-427.093 426.667zM512 98.134c-188.587 0-341.333 152.747-341.333 341.333s152.747 341.333 341.333 341.333c188.587 0 341.333-152.747 341.333-341.333s-152.747-341.333-341.333-341.333z" />
<glyph unicode="&#xe931;" glyph-name="person" d="M512 699.734c49.493 0 89.6-40.107 89.6-89.6s-40.107-89.6-89.6-89.6c-49.493 0-89.6 40.107-89.6 89.6s40.107 89.6 89.6 89.6zM512 315.734c126.72 0 260.267-62.293 260.267-89.6v-46.933h-520.533v46.933c0 27.307 133.547 89.6 260.267 89.6zM512 780.8c-94.293 0-170.667-76.373-170.667-170.667s76.373-170.667 170.667-170.667c94.293 0 170.667 76.373 170.667 170.667s-76.373 170.667-170.667 170.667zM512 396.8c-113.92 0-341.333-57.173-341.333-170.667v-128h682.667v128c0 113.493-227.413 170.667-341.333 170.667z" />
<glyph unicode="&#xe933;" glyph-name="home" d="M426 97.467h-212v342h-128l426 384 426-384h-128v-342h-212v256h-172v-256z" />
<glyph unicode="&#xe955;" glyph-name="star" d="M512 215.467l-264-160 70 300-232 202 306 26 120 282 120-282 306-26-232-202 70-300z" />
<glyph unicode="&#xe95e;" glyph-name="add-outlined" d="M555.52 517.12h174.080v-87.040h-174.080v-174.080h-87.040v174.080h-174.080v87.040h174.080v174.080h87.040v-174.080zM512 38.4c-240.355 0-435.2 194.846-435.2 435.2s194.845 435.2 435.2 435.2v0c240.354 0 435.2-194.846 435.2-435.2s-194.846-435.2-435.2-435.2v0zM512 125.44c192.283 0 348.16 155.877 348.16 348.16s-155.877 348.16-348.16 348.16v0c-192.283 0-348.16-155.877-348.16-348.16s155.877-348.16 348.16-348.16v0z" />
<glyph unicode="&#xea07;" glyph-name="warning" d="M512 807.976l355.347-708.233h-710.704l355.349 708.233zM512 884.8c-18.275 0-36.55-12.323-50.423-36.97l-361.955-721.391c-27.733-49.302-4.142-89.639 52.425-89.639h719.895c56.563 0 80.16 40.337 52.421 89.639h0.002l-361.955 721.391c-13.86 24.651-32.145 36.97-50.421 36.97v0zM565 195.8c0-29.274-23.726-53-53-53s-53 23.726-53 53c0 29.274 23.726 53 53 53s53-23.726 53-53zM512 301.8c-29.274 0-53 23.726-53 53v159c0 29.274 23.726 53 53 53s53-23.726 53-53v-159c0-29.274-23.726-53-53-53z" />
<glyph unicode="&#xea08;" glyph-name="notification" d="M512 805.3c-92.022 0-178.531-35.836-243.6-100.9s-100.9-151.578-100.9-243.6c0-92.022 35.836-178.531 100.9-243.6s151.578-100.9 243.6-100.9c92.022 0 178.531 35.836 243.6 100.9s100.9 151.578 100.9 243.6c0 92.022-35.836 178.531-100.9 243.6s-151.578 100.9-243.6 100.9zM512 884.8v0c234.172 0 424-189.828 424-424s-189.828-424-424-424c-234.172 0-424 189.828-424 424s189.828 424 424 424zM459 301.8h106v-106h-106zM459 725.8h106v-318h-106z" />
</font>
</defs>
</svg>
